<?xml version="1.0" encoding="utf-8"?>
<!-- Generator: Adobe Illustrator 18.1.1, SVG Export Plug-In . SVG Version: 6.00 Build 0)  -->
<!DOCTYPE svg PUBLIC "-//W3C//DTD SVG 1.1//EN" "http://www.w3.org/Graphics/SVG/1.1/DTD/svg11.dtd">
<svg version="1.1" id="Layer_1" xmlns="http://www.w3.org/2000/svg" xmlns:xlink="http://www.w3.org/1999/xlink" x="0px" y="0px"
	 viewBox="0 0 285.5 126" enable-background="new 0 0 285.5 126" xml:space="preserve">
<g>
	<path fill="#231F20" d="M33.5,72.1l-7.7-10.6v10.6h-4.2V53.9h3.7L33,64.5V53.9h4.2v18.2H33.5z"/>
	<path fill="#231F20" d="M59.2,72.1V53.9h12v3.5h-7.8V61h7.8v3.5h-7.8v4.1h7.8v3.5H59.2z"/>
	<path fill="#231F20" d="M107.8,64.8L107.8,64.8l2.9-10.9h4.7l-5.2,18.2H106l-3.2-11.3h-0.1l-3.2,11.3h-4l-5.1-18.2h4.7l2.7,10.9
		h0.1l3-10.9h3.9L107.8,64.8z"/>
	<path fill="#231F20" d="M146,61.2L146,61.2l-2.9,10.9h-4.7l5.2-18.2h4.2l3.2,11.3h0.1l3.2-11.3h4l5.1,18.2h-4.7l-2.7-10.9h-0.1
		l-3,10.9h-3.9L146,61.2z"/>
	<path fill="#231F20" d="M189.1,72.4c-5.4,0-9.6-4.2-9.6-9.4c0-5.2,4.2-9.4,9.6-9.4c5.4,0,9.6,4.2,9.6,9.4
		C198.7,68.2,194.5,72.4,189.1,72.4z M189.1,57.2c-3,0-5.1,2.6-5.1,5.8c0,3.2,2.2,5.8,5.1,5.8c3,0,5.1-2.6,5.1-5.8
		C194.2,59.8,192.1,57.2,189.1,57.2z"/>
	<path fill="#231F20" d="M218,53.9h5.5c4.7,0,10.1,2.4,10.1,9c0,6.7-5.3,9.2-10.3,9.2H218V53.9z M222.2,68.6h0.2
		c3.9,0,6.6-1.5,6.6-5.5c0-3.8-2.2-5.8-6-5.8h-0.8V68.6z"/>
	<path fill="#231F20" d="M252.8,72.1V53.9h12v3.5H257V61h7.8v3.5H257v4.1h7.8v3.5H252.8z"/>
	
		<rect x="127.2" y="6.9" transform="matrix(0.9376 0.3477 -0.3477 0.9376 29.8755 -40.4743)" fill="#231F20" width="1" height="112.2"/>
</g>
</svg>
